<svg id="Group_461" data-name="Group 461" xmlns="http://www.w3.org/2000/svg" width="46.61" height="53.95" viewBox="0 0 46.61 53.95">
  <path id="Path_819" data-name="Path 819" d="M44.11,7.34H37.8V3a3,3,0,0,0-6,0V7.34h-17V3a3,3,0,0,0-6,0V7.34H2.5A2.5,2.5,0,0,0,0,9.84V51.45a2.5,2.5,0,0,0,2.5,2.5H44.11a2.5,2.5,0,0,0,2.5-2.5V9.84A2.5,2.5,0,0,0,44.11,7.34Zm-2.5,5v5.85H5V12.34ZM5,48.95V23.69H41.61V48.95Z" fill="#585c5f"/>
  <path id="Path_820" data-name="Path 820" d="M33.82,28.63a3.03,3.03,0,1,0,3.03,3.03A3.034,3.034,0,0,0,33.82,28.63Z" fill="#585c5f"/>
  <path id="Path_821" data-name="Path 821" d="M23.31,28.63a3.03,3.03,0,1,0,3.03,3.03A3.034,3.034,0,0,0,23.31,28.63Z" fill="#585c5f"/>
  <path id="Path_822" data-name="Path 822" d="M12.79,28.63a3.03,3.03,0,1,0,3.03,3.03A3.034,3.034,0,0,0,12.79,28.63Z" fill="#585c5f"/>
  <path id="Path_823" data-name="Path 823" d="M33.82,37.92a3.03,3.03,0,1,0,3.03,3.03A3.034,3.034,0,0,0,33.82,37.92Z" fill="#585c5f"/>
  <path id="Path_824" data-name="Path 824" d="M23.31,37.92a3.03,3.03,0,1,0,3.03,3.03A3.034,3.034,0,0,0,23.31,37.92Z" fill="#585c5f"/>
  <path id="Path_825" data-name="Path 825" d="M12.79,37.92a3.03,3.03,0,1,0,3.03,3.03A3.034,3.034,0,0,0,12.79,37.92Z" fill="#585c5f"/>
</svg>
