<svg xmlns="http://www.w3.org/2000/svg" width="110.215" height="89.375" viewBox="0 0 110.215 89.375">
  <path id="Path_826" data-name="Path 826" d="M26.855-22.344h4.082a8.916,8.916,0,0,0,6.553-2.686,8.668,8.668,0,0,0,2.686-6.338v-4.082A8.916,8.916,0,0,0,37.49-42a8.916,8.916,0,0,0-6.553-2.686H26.855A8.668,8.668,0,0,0,20.518-42a8.916,8.916,0,0,0-2.686,6.553v4.082a8.668,8.668,0,0,0,2.686,6.338A8.668,8.668,0,0,0,26.855-22.344ZM22.988-35.449a4.154,4.154,0,0,1,1.074-2.9,3.6,3.6,0,0,1,2.793-1.182h4.082a3.943,3.943,0,0,1,2.9,1.182,3.943,3.943,0,0,1,1.182,2.9v4.082a3.6,3.6,0,0,1-1.182,2.793,4.154,4.154,0,0,1-2.9,1.074H26.855a3.778,3.778,0,0,1-2.793-1.074,3.778,3.778,0,0,1-1.074-2.793ZM55-73.047v-7.3A12.684,12.684,0,0,0,51.025-89.8a12.966,12.966,0,0,0-9.346-3.867H-41.895A12.966,12.966,0,0,0-51.24-89.8a12.684,12.684,0,0,0-3.975,9.453v62.734A12.684,12.684,0,0,0-51.24-8.164,12.966,12.966,0,0,0-41.895-4.3H41.68a12.609,12.609,0,0,0,9.238-3.867,12.859,12.859,0,0,0,3.867-9.453V-59.3H55ZM48.125-17.4A5.84,5.84,0,0,1,46.191-13a6.364,6.364,0,0,1-4.512,1.826H-41.895A6.364,6.364,0,0,1-46.406-13a5.84,5.84,0,0,1-1.934-4.4V-80.352a6.081,6.081,0,0,1,1.934-4.619A6.364,6.364,0,0,1-41.895-86.8H41.68a6,6,0,0,1,4.4,1.826,6.26,6.26,0,0,1,1.826,4.619v7.3H-48.125V-59.3h96.25Zm-86.367-7.52H-3.008a3.458,3.458,0,0,0,2.363-.967A3.176,3.176,0,0,0,.43-28.359,3.176,3.176,0,0,0-.645-30.83,3.458,3.458,0,0,0-3.008-31.8H-38.242a3.346,3.346,0,0,0-2.471.967,3.346,3.346,0,0,0-.967,2.471,3.176,3.176,0,0,0,1.074,2.471A3.458,3.458,0,0,0-38.242-24.922Zm0-13.75H-3.008a3.458,3.458,0,0,0,2.363-.967A3.176,3.176,0,0,0,.43-42.109,3.176,3.176,0,0,0-.645-44.58a3.458,3.458,0,0,0-2.363-.967H-38.242a3.346,3.346,0,0,0-2.471.967,3.346,3.346,0,0,0-.967,2.471,3.176,3.176,0,0,0,1.074,2.471A3.458,3.458,0,0,0-38.242-38.672Z" transform="translate(55.215 93.672)" fill="#0065ad"/>
</svg>
