<svg id="Group_459" data-name="Group 459" xmlns="http://www.w3.org/2000/svg" width="65.96" height="39.62" viewBox="0 0 65.96 39.62">
  <path id="Path_813" data-name="Path 813" d="M63.46,0H2.5A2.5,2.5,0,0,0,0,2.5V37.12a2.5,2.5,0,0,0,2.5,2.5H63.46a2.5,2.5,0,0,0,2.5-2.5V2.5A2.5,2.5,0,0,0,63.46,0ZM41.42,5.51c3.74,3.47,5.97,9.05,5.97,14.91a20.7,20.7,0,0,1-5.26,14.2H23.82a20.723,20.723,0,0,1-5.26-14.2c0-6.03,2.33-11.69,6.24-15.15A3.2,3.2,0,0,0,25.05,5H41A2.534,2.534,0,0,0,41.42,5.51ZM5,5H17.74a27.142,27.142,0,0,0-4.68,15.42,27.285,27.285,0,0,0,3.88,14.2H5ZM60.96,34.62H49.02a27.233,27.233,0,0,0,3.88-14.2A26.755,26.755,0,0,0,48.22,5H60.96Z" fill="#585c5f"/>
  <path id="Path_814" data-name="Path 814" d="M24.78,18.65a2.5,2.5,0,0,0,0,3.54l4.64,4.64a2.511,2.511,0,0,0,3.54,0l9.32-9.32a2.5,2.5,0,0,0-3.54-3.54l-7.55,7.55-2.88-2.88A2.5,2.5,0,0,0,24.78,18.65Z" fill="#585c5f"/>
</svg>
