<svg xmlns="http://www.w3.org/2000/svg" width="99.688" height="100.547" viewBox="0 0 99.688 100.547">
  <path id="Path_827" data-name="Path 827" d="M46.406-79.707H31.367a15.5,15.5,0,0,0,1.4-3.33A13.255,13.255,0,0,0,33.3-86.8a13.461,13.461,0,0,0-4.082-9.883,13.461,13.461,0,0,0-9.883-4.082,15.172,15.172,0,0,0-5.371.967,10.638,10.638,0,0,0-4.3,2.9L6.445-93.672A43.49,43.49,0,0,0,0-84.648a48.955,48.955,0,0,0-6.445-8.916L-9.453-96.68a13.84,13.84,0,0,0-4.512-3.008,13.831,13.831,0,0,0-5.371-1.074,13.461,13.461,0,0,0-9.883,4.082A13.461,13.461,0,0,0-33.3-86.8a13.255,13.255,0,0,0,.537,3.76,21.44,21.44,0,0,0,1.4,3.545H-46.406a3.458,3.458,0,0,0-2.363.967,3.176,3.176,0,0,0-1.074,2.471V-60.8A3.176,3.176,0,0,0-48.77-58.33a3.458,3.458,0,0,0,2.363.967h1.289V-11.6a10.975,10.975,0,0,0,3.33,8.057,11.23,11.23,0,0,0,8.271,3.33H33.516a11.333,11.333,0,0,0,8.164-3.33A10.8,10.8,0,0,0,45.117-11.6V-57.363h1.289a3.458,3.458,0,0,0,2.363-.967A3.176,3.176,0,0,0,49.844-60.8V-76.27a3.285,3.285,0,0,0-1.074-2.363A3.285,3.285,0,0,0,46.406-79.707ZM42.969-64.238H14.18v-8.594H42.969Zm-50.273,0v-8.594H7.09v8.594ZM7.3-57.363V-7.09H-7.3V-57.363Zm7.09-34.375a5.331,5.331,0,0,1,2.148-1.611,7.189,7.189,0,0,1,2.793-.537,6.858,6.858,0,0,1,5.049,2.041A6.858,6.858,0,0,1,26.426-86.8a7.222,7.222,0,0,1-2.041,5.156,6.685,6.685,0,0,1-5.049,2.148H4.941a41.567,41.567,0,0,1,6.23-9.131A26.4,26.4,0,0,1,14.395-91.738ZM-26.426-86.8q0-4.3,4.4-6.338t7.842,1.611a24.7,24.7,0,0,1,3.115,3.008,42.873,42.873,0,0,1,6.123,8.809H-19.336a6.858,6.858,0,0,1-5.049-2.041A6.858,6.858,0,0,1-26.426-86.8ZM-42.969-72.832H-14.18v8.594H-42.969Zm4.727,61.23V-57.363H-14.18V-7.09H-33.516a4.546,4.546,0,0,1-3.33-1.4A4.314,4.314,0,0,1-38.242-11.6Zm76.484,0a4.314,4.314,0,0,1-1.4,3.115,4.546,4.546,0,0,1-3.33,1.4H14.18V-57.363H38.242Z" transform="translate(49.844 100.762)" fill="#0065ad"/>
</svg>
