<svg id="Group_460" data-name="Group 460" xmlns="http://www.w3.org/2000/svg" width="68.98" height="56.33" viewBox="0 0 68.98 56.33">
  <path id="Path_815" data-name="Path 815" d="M47.44,7.91V5.5h3.52a2.75,2.75,0,0,0,0-5.5H38.42a2.75,2.75,0,0,0,0,5.5h3.52V7.91a24.29,24.29,0,1,0,5.5,0ZM44.69,50.83A18.79,18.79,0,1,1,63.48,32.04,18.812,18.812,0,0,1,44.69,50.83Z" fill="#585c5f"/>
  <path id="Path_816" data-name="Path 816" d="M44.69,17a2.748,2.748,0,0,0-2.75,2.75V33.21a2.75,2.75,0,0,0,5.5,0V19.75A2.748,2.748,0,0,0,44.69,17Z" fill="#585c5f"/>
  <path id="Path_817" data-name="Path 817" d="M15.29,23.79H6.75a2.75,2.75,0,0,0,0,5.5h8.54a2.75,2.75,0,1,0,0-5.5Z" fill="#585c5f"/>
  <path id="Path_818" data-name="Path 818" d="M15.29,34.79H2.75a2.75,2.75,0,0,0,0,5.5H15.29a2.75,2.75,0,1,0,0-5.5Z" fill="#585c5f"/>
</svg>
